#tb 0: 1/25
0,          0,          0,        1,   196608, 0x9bfcfae5
0,          1,          1,        1,   196608, 0x1ac6fcbf
0,          2,          2,        1,   196608, 0x31cb1088
